<svg width="14" height="16" viewBox="0 0 14 16" fill="none" xmlns="http://www.w3.org/2000/svg">
<path d="M7.26953 1.17285C7.29715 1.19057 8.69898 2.09218 10.1016 3.43555C10.805 4.10932 11.5226 4.90645 12.0664 5.77148C12.608 6.63321 13 7.59771 13 8.59473L12.9951 8.77441C12.9042 10.5641 11.4693 11.9993 9.67969 12.0898L9.5 12.0947C9.04711 12.0947 8.61481 12.0075 8.21777 11.8506C7.5 13.5 9 14.5498 9 14.5498H5C5 14.5498 6.5 13.5 5.78027 11.8486C5.45025 11.9791 5.09701 12.0642 4.72656 12.0879L4.5 12.0947C2.62766 12.0946 1.099 10.6238 1.00488 8.77441L1.00391 8.76172L1 8.60742V8.58301L1.00391 8.41992V8.40723C1.05142 7.43127 1.46358 6.49034 2.01172 5.64941C2.56214 4.80509 3.27266 4.02827 3.96484 3.37207C5.34482 2.06392 6.7032 1.19035 6.73047 1.17285L7 1L7.26953 1.17285Z" fill="#2D2D2D" stroke="#1F1F1F"/>
</svg>
